<?xml version="1.0" encoding="iso-8859-1"?>
<!-- Generator: Adobe Illustrator 19.0.0, SVG Export Plug-In . SVG Version: 6.00 Build 0)  -->
<svg version="1.1" id="Layer_1" xmlns="http://www.w3.org/2000/svg" xmlns:xlink="http://www.w3.org/1999/xlink" x="0px" y="0px"
	 viewBox="0 0 512 512" style="enable-background:new 0 0 512 512;" xml:space="preserve">
<path style="fill:#2D527C;" d="M336.88,494.058H40.847C18.324,494.058,0,475.732,0,453.21V191.664
	c0-22.523,18.324-40.847,40.847-40.847h296.033c22.523,0,40.846,18.324,40.846,40.847v212.254c0,8.169-6.624,14.792-14.792,14.792
	c-8.168,0-14.792-6.622-14.792-14.792V191.664c0-6.211-5.053-11.264-11.262-11.264H40.847c-6.211,0-11.264,5.053-11.264,11.264
	V453.21c0,6.211,5.053,11.264,11.264,11.264h296.033c8.168,0,14.792,6.622,14.792,14.792S345.049,494.058,336.88,494.058z"/>
<path style="fill:#CEE8FA;" d="M184.444,32.888c-29.882,2.062-54.435,25.701-57.513,55.496c-1.905,18.447,4.251,35.471,15.373,47.98
	c7.263,8.169,11.317,18.519,12.005,29.245h69.285c0.781-10.836,4.858-21.285,12.134-29.591c9.595-10.953,15.41-25.3,15.41-41.007
	C251.139,59.155,220.836,30.376,184.444,32.888z"/>
<path style="fill:#2D527C;" d="M223.595,180.4H154.31c-7.801,0-14.261-6.059-14.761-13.844c-0.493-7.667-3.441-14.9-8.3-20.365
	c-14.536-16.349-21.296-37.42-19.033-59.328c3.785-36.644,34.397-66.193,71.209-68.733c1.808-0.124,3.636-0.188,5.439-0.188
	c42.495,0,77.066,34.573,77.066,77.068c0,18.685-6.775,36.71-19.075,50.753c-4.991,5.696-7.931,12.927-8.507,20.908
	C237.791,174.41,231.352,180.4,223.595,180.4z M166.656,150.817h44.596c2.599-9.092,7.109-17.422,13.348-24.545
	c7.575-8.647,11.746-19.748,11.746-31.261c0-26.183-21.3-47.484-47.483-47.484c-1.126,0-2.271,0.04-3.402,0.118
	c-22.654,1.563-41.491,19.731-43.818,42.259c-1.399,13.552,2.76,26.562,11.714,36.633
	C159.517,133.463,164.052,141.804,166.656,150.817z"/>
<path style="fill:#CEE8FA;" d="M497.053,310.748c-2.062-29.882-25.701-54.435-55.496-57.513
	c-18.447-1.905-35.471,4.251-47.98,15.373c-8.169,7.263-18.519,11.317-29.245,12.005v69.285
	c10.836,0.781,21.285,4.858,29.591,12.134c10.953,9.595,25.3,15.41,41.007,15.41C470.786,377.443,499.565,347.14,497.053,310.748z"
	/>
<g>
	<path style="fill:#2D527C;" d="M434.929,392.234c-18.686,0-36.71-6.775-50.753-19.075c-5.698-4.991-12.927-7.931-20.908-8.507
		c-7.736-0.558-13.728-6.996-13.728-14.753v-69.285c0-7.801,6.059-14.261,13.842-14.761c7.668-0.493,14.9-3.439,20.365-8.298
		c14.111-12.545,32.287-19.454,51.182-19.454c2.699,0,5.44,0.142,8.147,0.422c36.644,3.785,66.193,34.397,68.733,71.209
		c1.492,21.627-5.798,42.229-20.531,58.013C476.751,383.307,456.213,392.234,434.929,392.234z M379.124,337.557
		c9.094,2.599,17.42,7.109,24.545,13.35c8.647,7.575,19.75,11.745,31.261,11.745c13.305,0,25.637-5.361,34.722-15.095
		c9.076-9.723,13.567-22.435,12.644-35.792c-1.563-22.654-19.729-41.491-42.257-43.818c-13.413-1.389-26.683,2.868-36.633,11.714
		c-6.927,6.159-15.268,10.693-24.281,13.298v44.599H379.124z"/>
	<path style="fill:#2D527C;" d="M199.05,393.977c-44.09,0-79.958-35.868-79.958-79.958s35.87-79.958,79.958-79.958
		c7.031,0,14.012,0.916,20.75,2.723c7.89,2.115,12.573,10.227,10.456,18.118c-2.115,7.89-10.224,12.577-18.118,10.456
		c-4.241-1.137-8.644-1.713-13.089-1.713c-27.777,0-50.375,22.597-50.375,50.375s22.597,50.375,50.375,50.375
		s50.376-22.597,50.376-50.375c0-8.169,6.622-14.792,14.792-14.792c8.168,0,14.792,6.622,14.792,14.792
		C279.009,358.108,243.139,393.977,199.05,393.977z"/>
	<path style="fill:#2D527C;" d="M291.678,490.945c-8.168,0-14.792-6.622-14.792-14.792c0-27.161-13.931-51.957-37.263-66.334
		c-6.955-4.285-9.119-13.397-4.834-20.352c4.284-6.955,13.398-9.121,20.352-4.834c32.141,19.802,51.329,54.015,51.329,91.521
		C306.47,484.323,299.848,490.945,291.678,490.945z"/>
	<path style="fill:#2D527C;" d="M106.422,490.945c-8.169,0-14.792-6.622-14.792-14.792c0-59.231,48.189-107.421,107.421-107.421
		c19.814,0,39.21,5.498,56.092,15.9c6.955,4.285,9.119,13.397,4.835,20.352c-4.287,6.955-13.398,9.121-20.353,4.834
		c-12.214-7.525-26.244-11.502-40.574-11.502c-42.92,0-77.837,34.917-77.837,77.837
		C121.214,484.323,114.592,490.945,106.422,490.945z"/>
</g>
<g>
</g>
<g>
</g>
<g>
</g>
<g>
</g>
<g>
</g>
<g>
</g>
<g>
</g>
<g>
</g>
<g>
</g>
<g>
</g>
<g>
</g>
<g>
</g>
<g>
</g>
<g>
</g>
<g>
</g>
</svg>
