<?xml version="1.0" encoding="iso-8859-1"?>
<!-- Generator: Adobe Illustrator 19.0.0, SVG Export Plug-In . SVG Version: 6.00 Build 0)  -->
<svg version="1.1" id="Capa_1" xmlns="http://www.w3.org/2000/svg" xmlns:xlink="http://www.w3.org/1999/xlink" x="0px" y="0px"
	 viewBox="0 0 227.772 227.772" style="enable-background:new 0 0 227.772 227.772;" xml:space="preserve">
<path d="M214.198,63.824h-53.148c0.681-1,1.222-1.492,1.56-1.821c6.936-6.731,10.307-14.738,10.307-24.456
	c0-8.375-3.333-16.01-9.387-21.488c-5.776-5.229-13.581-8.112-21.974-8.112s-16.197,2.879-21.974,8.108
	c-6.054,5.479-9.388,13.108-9.388,21.483c0,14.259,7.92,21.993,10.521,24.528c0.328,0.319,0.846,0.758,1.497,1.758H68.914
	c-7.716,0-14.143,6.238-14.143,13.954v42.734c0-0.389-0.658-0.711-0.879-0.938c-6.731-6.936-14.645-10.307-24.363-10.307
	c-8.375,0-15.963,3.333-21.442,9.387C2.859,124.432,0,132.236,0,140.629s2.89,16.197,8.12,21.974
	c5.479,6.054,13.114,9.388,21.489,9.388c14.259,0,21.811-7.92,24.345-10.521c0.212-0.217,0.819-0.518,0.819-0.88v45.122
	c0,7.716,6.427,14.113,14.143,14.113h145.283c7.716,0,13.574-6.397,13.574-14.113V77.778
	C227.772,70.062,221.913,63.824,214.198,63.824z M101.937,197.824l5.913-57h22.396c-10.887-5-18.558-15.095-18.558-27.459
	c0-16.323,13.371-29.608,29.868-29.608c16.495,0,29.867,13.309,29.867,29.633c0,12.365-7.672,22.435-18.558,27.435h22.396l5.913,57
	H101.937z"/>
<g>
</g>
<g>
</g>
<g>
</g>
<g>
</g>
<g>
</g>
<g>
</g>
<g>
</g>
<g>
</g>
<g>
</g>
<g>
</g>
<g>
</g>
<g>
</g>
<g>
</g>
<g>
</g>
<g>
</g>
</svg>
